name rise30.3154peak39.0474fall46.5389.mot
datacolumns 19
datarows 30
range 19.74325900000000 19.79159000000000
endheader
time	ground_force1_vx	ground_force1_vy	ground_force1_vz	ground_force1_px	ground_force1_py	ground_force1_pz	ground_force2_vx	ground_force2_vy	ground_force2_vz	ground_force2_px	ground_force2_py	ground_force2_pz	ground_torque1_x	ground_torque1_y	ground_torque1_z	ground_torque2_x	ground_torque2_y	ground_torque2_z	
19.74325900000000	53.02521600000000	721.85325000000000	59.15104000000000	0.36122700000000	0.00000000000000	0.14191400000000	0.00000000000000	0.00000000000000	0.00000000000000	0.00000000000000	0.00000000000000	0.00000000000000	0.00000000000000	25.99823100000000	0.00000000000000	0.00000000000000	0.00000000000000	0.00000000000000	
19.74492700000000	52.40679800000000	723.66861500000005	59.07095200000000	0.35925500000000	0.00000000000000	0.14198000000000	0.00000000000000	0.00000000000000	0.00000000000000	0.00000000000000	0.00000000000000	0.00000000000000	0.00000000000000	25.87354900000000	0.00000000000000	0.00000000000000	0.00000000000000	0.00000000000000	
19.74659400000000	51.80208700000000	725.44132400000001	58.99751400000000	0.35732200000000	0.00000000000000	0.14204500000000	0.00000000000000	0.00000000000000	0.00000000000000	0.00000000000000	0.00000000000000	0.00000000000000	0.00000000000000	25.75490200000000	0.00000000000000	0.00000000000000	0.00000000000000	0.00000000000000	
19.74827300000000	51.21129100000000	727.16942300000005	58.93045200000000	0.35543000000000	0.00000000000000	0.14211000000000	0.00000000000000	0.00000000000000	0.00000000000000	0.00000000000000	0.00000000000000	0.00000000000000	0.00000000000000	25.64225900000000	0.00000000000000	0.00000000000000	0.00000000000000	0.00000000000000	
19.74992600000000	50.63452000000000	728.85084700000004	58.86940000000000	0.35358200000000	0.00000000000000	0.14217500000000	0.00000000000000	0.00000000000000	0.00000000000000	0.00000000000000	0.00000000000000	0.00000000000000	0.00000000000000	25.53552600000000	0.00000000000000	0.00000000000000	0.00000000000000	0.00000000000000	
19.75159900000000	50.07179000000000	730.48343299999999	58.81391000000000	0.35178000000000	0.00000000000000	0.14223800000000	0.00000000000000	0.00000000000000	0.00000000000000	0.00000000000000	0.00000000000000	0.00000000000000	0.00000000000000	25.43456000000000	0.00000000000000	0.00000000000000	0.00000000000000	0.00000000000000	
19.75326300000000	49.52302400000000	732.06494499999997	58.76345500000000	0.35002500000000	0.00000000000000	0.14230100000000	0.00000000000000	0.00000000000000	0.00000000000000	0.00000000000000	0.00000000000000	0.00000000000000	0.00000000000000	25.33916600000000	0.00000000000000	0.00000000000000	0.00000000000000	0.00000000000000	
19.75493200000000	48.98806000000000	733.59308999999996	58.71744200000000	0.34832000000000	0.00000000000000	0.14236200000000	0.00000000000000	0.00000000000000	0.00000000000000	0.00000000000000	0.00000000000000	0.00000000000000	0.00000000000000	25.24910600000000	0.00000000000000	0.00000000000000	0.00000000000000	0.00000000000000	
19.75660100000000	48.46665200000000	735.06553699999995	58.67521900000000	0.34666600000000	0.00000000000000	0.14242200000000	0.00000000000000	0.00000000000000	0.00000000000000	0.00000000000000	0.00000000000000	0.00000000000000	0.00000000000000	25.16410400000000	0.00000000000000	0.00000000000000	0.00000000000000	0.00000000000000	
19.75826200000000	47.95847900000000	736.47993799999995	58.63608000000000	0.34506400000000	0.00000000000000	0.14248100000000	0.00000000000000	0.00000000000000	0.00000000000000	0.00000000000000	0.00000000000000	0.00000000000000	0.00000000000000	25.08384900000000	0.00000000000000	0.00000000000000	0.00000000000000	0.00000000000000	
19.75992600000000	47.46315100000000	737.83394299999998	58.59928000000000	0.34351500000000	0.00000000000000	0.14253800000000	0.00000000000000	0.00000000000000	0.00000000000000	0.00000000000000	0.00000000000000	0.00000000000000	0.00000000000000	25.00800300000000	0.00000000000000	0.00000000000000	0.00000000000000	0.00000000000000	
19.76159600000000	46.98020800000000	739.12522200000001	58.56403800000000	0.34202100000000	0.00000000000000	0.14259300000000	0.00000000000000	0.00000000000000	0.00000000000000	0.00000000000000	0.00000000000000	0.00000000000000	0.00000000000000	24.93620100000000	0.00000000000000	0.00000000000000	0.00000000000000	0.00000000000000	
19.76326200000000	46.50913300000000	740.35147900000004	58.52954700000000	0.34058100000000	0.00000000000000	0.14264700000000	0.00000000000000	0.00000000000000	0.00000000000000	0.00000000000000	0.00000000000000	0.00000000000000	0.00000000000000	24.86806100000000	0.00000000000000	0.00000000000000	0.00000000000000	0.00000000000000	
19.76492500000000	46.04935400000000	741.51047400000004	58.49498300000000	0.33919600000000	0.00000000000000	0.14269800000000	0.00000000000000	0.00000000000000	0.00000000000000	0.00000000000000	0.00000000000000	0.00000000000000	0.00000000000000	24.80318300000000	0.00000000000000	0.00000000000000	0.00000000000000	0.00000000000000	
19.76659000000000	45.60025100000000	742.60003400000005	58.45951600000000	0.33786700000000	0.00000000000000	0.14274800000000	0.00000000000000	0.00000000000000	0.00000000000000	0.00000000000000	0.00000000000000	0.00000000000000	0.00000000000000	24.74115800000000	0.00000000000000	0.00000000000000	0.00000000000000	0.00000000000000	
19.76826500000000	45.16115900000000	743.61807399999998	58.42231300000000	0.33659300000000	0.00000000000000	0.14279500000000	0.00000000000000	0.00000000000000	0.00000000000000	0.00000000000000	0.00000000000000	0.00000000000000	0.00000000000000	24.68157200000000	0.00000000000000	0.00000000000000	0.00000000000000	0.00000000000000	
19.76992900000000	44.73137900000000	744.56260699999996	58.38254800000000	0.33537400000000	0.00000000000000	0.14284000000000	0.00000000000000	0.00000000000000	0.00000000000000	0.00000000000000	0.00000000000000	0.00000000000000	0.00000000000000	24.62400500000000	0.00000000000000	0.00000000000000	0.00000000000000	0.00000000000000	
19.77159900000000	44.31018000000000	745.43176500000004	58.33941000000000	0.33420900000000	0.00000000000000	0.14288200000000	0.00000000000000	0.00000000000000	0.00000000000000	0.00000000000000	0.00000000000000	0.00000000000000	0.00000000000000	24.56804100000000	0.00000000000000	0.00000000000000	0.00000000000000	0.00000000000000	
19.77326600000000	43.89680500000000	746.22380599999997	58.29211100000000	0.33309900000000	0.00000000000000	0.14292200000000	0.00000000000000	0.00000000000000	0.00000000000000	0.00000000000000	0.00000000000000	0.00000000000000	0.00000000000000	24.51326800000000	0.00000000000000	0.00000000000000	0.00000000000000	0.00000000000000	
19.77493000000000	43.49047800000000	746.93713200000002	58.23989200000000	0.33204100000000	0.00000000000000	0.14296000000000	0.00000000000000	0.00000000000000	0.00000000000000	0.00000000000000	0.00000000000000	0.00000000000000	0.00000000000000	24.45928300000000	0.00000000000000	0.00000000000000	0.00000000000000	0.00000000000000	
19.77659100000000	43.09040800000000	747.57029799999998	58.18202600000000	0.33103500000000	0.00000000000000	0.14299500000000	0.00000000000000	0.00000000000000	0.00000000000000	0.00000000000000	0.00000000000000	0.00000000000000	0.00000000000000	24.40569300000000	0.00000000000000	0.00000000000000	0.00000000000000	0.00000000000000	
19.77825900000000	42.69579700000000	748.12202300000001	58.11783000000000	0.33008000000000	0.00000000000000	0.14302800000000	0.00000000000000	0.00000000000000	0.00000000000000	0.00000000000000	0.00000000000000	0.00000000000000	0.00000000000000	24.35212200000000	0.00000000000000	0.00000000000000	0.00000000000000	0.00000000000000	
19.77992900000000	42.30584000000000	748.59120199999995	58.04666600000000	0.32917500000000	0.00000000000000	0.14305800000000	0.00000000000000	0.00000000000000	0.00000000000000	0.00000000000000	0.00000000000000	0.00000000000000	0.00000000000000	24.29820800000000	0.00000000000000	0.00000000000000	0.00000000000000	0.00000000000000	
19.78159200000000	41.91973700000000	748.97690999999998	57.96794500000000	0.32831800000000	0.00000000000000	0.14308600000000	0.00000000000000	0.00000000000000	0.00000000000000	0.00000000000000	0.00000000000000	0.00000000000000	0.00000000000000	24.24361200000000	0.00000000000000	0.00000000000000	0.00000000000000	0.00000000000000	
19.78326100000000	41.53669100000000	749.27841799999999	57.88113700000000	0.32750600000000	0.00000000000000	0.14311100000000	0.00000000000000	0.00000000000000	0.00000000000000	0.00000000000000	0.00000000000000	0.00000000000000	0.00000000000000	24.18801300000000	0.00000000000000	0.00000000000000	0.00000000000000	0.00000000000000	
19.78492700000000	41.15591700000000	749.49519299999997	57.78576900000000	0.32674000000000	0.00000000000000	0.14313300000000	0.00000000000000	0.00000000000000	0.00000000000000	0.00000000000000	0.00000000000000	0.00000000000000	0.00000000000000	24.13111800000000	0.00000000000000	0.00000000000000	0.00000000000000	0.00000000000000	
19.78659600000000	40.77664300000000	749.62690699999996	57.68143000000000	0.32601500000000	0.00000000000000	0.14315400000000	0.00000000000000	0.00000000000000	0.00000000000000	0.00000000000000	0.00000000000000	0.00000000000000	0.00000000000000	24.07265700000000	0.00000000000000	0.00000000000000	0.00000000000000	0.00000000000000	
19.78826000000000	40.39811800000000	749.67343900000003	57.56777400000000	0.32533100000000	0.00000000000000	0.14317100000000	0.00000000000000	0.00000000000000	0.00000000000000	0.00000000000000	0.00000000000000	0.00000000000000	0.00000000000000	24.01238700000000	0.00000000000000	0.00000000000000	0.00000000000000	0.00000000000000	
19.78993100000000	40.01961300000000	749.63488400000006	57.44452200000000	0.32468500000000	0.00000000000000	0.14318700000000	0.00000000000000	0.00000000000000	0.00000000000000	0.00000000000000	0.00000000000000	0.00000000000000	0.00000000000000	23.95009400000000	0.00000000000000	0.00000000000000	0.00000000000000	0.00000000000000	
19.79159000000000	39.64042100000000	749.51155200000005	57.31146500000000	0.32407500000000	0.00000000000000	0.14320000000000	0.00000000000000	0.00000000000000	0.00000000000000	0.00000000000000	0.00000000000000	0.00000000000000	0.00000000000000	23.88559400000000	0.00000000000000	0.00000000000000	0.00000000000000	0.00000000000000	
